<svg width="45" height="45" viewBox="0 0 45 45" fill="none" xmlns="http://www.w3.org/2000/svg">
<path fill-rule="evenodd" clip-rule="evenodd" d="M33.2593 10.7595C33.2593 16.7018 22.4999 31.8878 22.4999 31.8878C22.4999 31.8878 11.7404 16.7018 11.7404 10.7595C11.7404 4.8172 16.5576 0 22.4999 0C28.4422 0 33.2593 4.8172 33.2593 10.7595ZM22.4999 15.0299C24.7864 15.0299 26.64 13.1764 26.64 10.8899C26.64 8.60339 24.7864 6.74982 22.4999 6.74982C20.2134 6.74982 18.3599 8.60339 18.3599 10.8899C18.3599 13.1764 20.2134 15.0299 22.4999 15.0299Z" fill="#FF1C60"/>
<path d="M10.7711 6.79178C6.7215 8.54237 3.79139 12.3226 3.22737 16.8857C2.89387 19.584 2.61475 22.5852 2.61475 25.1148C2.61475 27.6445 2.89387 30.6457 3.22737 33.344C3.94362 39.1389 8.47586 43.6711 14.2708 44.3874C16.969 44.7209 19.9703 45 22.4999 45C25.0296 45 28.0308 44.7209 30.729 44.3874C36.524 43.6711 41.0562 39.1389 41.7725 33.344C42.106 30.6457 42.3851 27.6445 42.3851 25.1148C42.3851 22.5852 42.106 19.584 41.7725 16.8857C41.2084 12.3226 38.2784 8.54243 34.2288 6.79181C34.7899 8.16635 35.0981 9.66341 35.0981 11.2298C35.0981 11.5206 35.0743 11.8311 35.0289 12.159C36.4637 13.4958 37.4338 15.3229 37.6893 17.3904C38.0159 20.0321 38.2709 22.8375 38.2709 25.1148C38.2709 26.6439 38.1559 28.411 37.9816 30.2068C37.3098 27.9022 35.6033 25.9222 33.3507 24.4508C32.3596 23.8035 31.249 23.2435 30.0453 22.7853C29.655 23.4585 29.2567 24.127 28.8568 24.7836C30.062 25.2108 31.154 25.746 32.1008 26.3645C34.6338 28.019 36.008 30.1726 36.008 32.3857C36.008 34.5987 34.6338 36.7523 32.1008 38.4069C30.4835 39.4633 28.4428 40.2767 26.137 40.7245C24.8523 40.8249 23.6131 40.8858 22.4999 40.8858C20.937 40.8858 19.1253 40.7657 17.2886 40.5848C15.2528 40.1175 13.4458 39.3614 11.9846 38.4069C9.4515 36.7523 8.07732 34.5987 8.07732 32.3857C8.07732 30.1726 9.4515 28.019 11.9846 26.3645C13.0296 25.6819 14.2513 25.1007 15.6072 24.6541C15.2063 23.9939 14.8073 23.3222 14.4169 22.6463C13.0676 23.1284 11.8283 23.7365 10.7346 24.4508C9.09032 25.5249 7.73704 26.8699 6.86474 28.4144C6.77962 27.2504 6.72892 26.1301 6.72892 25.1148C6.72892 22.8375 6.98396 20.0321 7.31049 17.3904C7.56603 15.3229 8.53615 13.4958 9.97096 12.159C9.92557 11.8311 9.90182 11.5206 9.90182 11.2298C9.90182 9.66338 10.21 8.16635 10.7711 6.79178Z" fill="#FF1C60"/>
<path d="M16.2804 25.7496C15.6681 26.0125 15.0956 26.3172 14.5716 26.6595C12.6186 27.9352 11.2181 29.8297 11.2181 32.088C11.2181 34.3462 12.6186 36.2408 14.5716 37.5164C16.5349 38.7988 19.1795 39.5547 22.0426 39.5547C24.9056 39.5547 27.5502 38.7988 29.5135 37.5164C31.4665 36.2408 32.867 34.3462 32.867 32.088C32.867 29.8297 31.4665 27.9352 29.5135 26.6595C29.0929 26.3847 28.641 26.1342 28.1624 25.91C27.7447 26.5798 27.3294 27.2321 26.9238 27.8589C27.411 28.0694 27.8598 28.3093 28.2636 28.5731C29.8146 29.5862 30.5814 30.8536 30.5814 32.088C30.5814 33.3222 29.8146 34.5897 28.2636 35.6028C26.7228 36.6092 24.5266 37.269 22.0426 37.269C19.5586 37.269 17.3623 36.6092 15.8216 35.6028C14.2705 34.5897 13.5037 33.3222 13.5037 32.088C13.5037 30.8536 14.2705 29.5862 15.8216 28.5731C16.3234 28.2453 16.8949 27.9542 17.5231 27.7108C17.1156 27.0793 16.6989 26.4228 16.2804 25.7496Z" fill="#FF1C60"/>
<path d="M18.3167 28.9277C17.3877 29.5648 16.6438 30.5497 16.6438 31.7889C16.6438 33.0686 17.4371 34.0771 18.4082 34.7114C19.3896 35.3524 20.6778 35.7116 22.0425 35.7116C23.4073 35.7116 24.6955 35.3524 25.6769 34.7114C26.648 34.0771 27.4412 33.0686 27.4412 31.7889C27.4412 30.6895 26.8558 29.7903 26.075 29.1565C25.6225 29.8406 25.1906 30.4821 24.7909 31.0683C25.068 31.3409 25.1556 31.5994 25.1556 31.7889C25.1556 32.0445 24.9961 32.426 24.4269 32.7978C23.868 33.1628 23.0283 33.426 22.0425 33.426C21.0568 33.426 20.2171 33.1628 19.6581 32.7978C19.089 32.426 18.9295 32.0445 18.9295 31.7889C18.9295 31.5441 19.0757 31.184 19.5878 30.8275C19.1896 30.2413 18.7623 29.604 18.3167 28.9277Z" fill="#FF1C60"/>
</svg>
