<svg width="260" height="45" viewBox="0 0 260 45" fill="none" xmlns="http://www.w3.org/2000/svg">
<path d="M62.8854 34.4807C61.7241 34.4807 60.5887 34.2901 59.4794 33.9087C58.3701 33.5274 57.4341 32.9641 56.6714 32.2187L58.1014 29.5927C58.9334 30.1994 59.7394 30.6587 60.5194 30.9707C61.3167 31.2827 62.0621 31.4387 62.7554 31.4387C63.2927 31.4387 63.7087 31.3521 64.0034 31.1787C64.2981 31.0054 64.4454 30.7367 64.4454 30.3727C64.4454 30.1127 64.3587 29.9134 64.1854 29.7747C64.0121 29.6187 63.7434 29.4801 63.3794 29.3587C63.0327 29.2374 62.5994 29.1074 62.0794 28.9687C61.0394 28.6221 60.1727 28.2841 59.4794 27.9547C58.7861 27.6254 58.2661 27.2267 57.9194 26.7587C57.5727 26.2734 57.3994 25.6494 57.3994 24.8867C57.3994 23.9681 57.6247 23.1707 58.0754 22.4947C58.5434 21.8014 59.2021 21.2641 60.0514 20.8827C60.9007 20.5014 61.9147 20.3107 63.0934 20.3107C64.0294 20.3107 64.9394 20.4581 65.8234 20.7527C66.7247 21.0474 67.5654 21.5414 68.3454 22.2347L66.7334 24.8347C65.9534 24.2974 65.2601 23.9074 64.6534 23.6647C64.0467 23.4221 63.4574 23.3007 62.8854 23.3007C62.5907 23.3007 62.3221 23.3354 62.0794 23.4047C61.8367 23.4741 61.6374 23.5954 61.4814 23.7687C61.3427 23.9247 61.2734 24.1327 61.2734 24.3927C61.2734 24.6527 61.3427 24.8607 61.4814 25.0167C61.6374 25.1727 61.8714 25.3114 62.1834 25.4327C62.5127 25.5367 62.9201 25.6667 63.4054 25.8227C64.5321 26.1521 65.4681 26.4901 66.2134 26.8367C66.9587 27.1661 67.5134 27.5821 67.8774 28.0847C68.2587 28.5701 68.4494 29.2201 68.4494 30.0347C68.4494 31.4214 67.9467 32.5134 66.9414 33.3107C65.9534 34.0907 64.6014 34.4807 62.8854 34.4807Z" fill="white"/>
<path d="M74.0237 34.2207L69.1877 20.5707H73.4777L76.4677 30.4767L79.4577 20.5707H83.3577L78.5477 34.2207H74.0237Z" fill="white"/>
<path d="M91.264 34.4807C90.1026 34.4807 89.0713 34.2987 88.17 33.9347C87.2686 33.5534 86.4973 33.0421 85.856 32.4007C85.232 31.7594 84.7553 31.0227 84.426 30.1907C84.0966 29.3414 83.932 28.4574 83.932 27.5387C83.932 26.2214 84.218 25.0254 84.79 23.9507C85.3793 22.8587 86.22 21.9834 87.312 21.3247C88.404 20.6487 89.7213 20.3107 91.264 20.3107C92.8066 20.3107 94.1153 20.6401 95.19 21.2987C96.282 21.9574 97.114 22.8241 97.686 23.8987C98.258 24.9561 98.544 26.1087 98.544 27.3567C98.544 27.5994 98.5266 27.8421 98.492 28.0847C98.4746 28.3101 98.4573 28.5094 98.44 28.6827H88.352C88.404 29.2894 88.5686 29.8007 88.846 30.2167C89.1406 30.6327 89.5133 30.9534 89.964 31.1787C90.4146 31.3867 90.8913 31.4907 91.394 31.4907C92.018 31.4907 92.5986 31.3434 93.136 31.0487C93.6906 30.7541 94.072 30.3554 94.28 29.8527L97.816 30.8407C97.4693 31.5514 96.9753 32.1841 96.334 32.7387C95.71 33.2761 94.9646 33.7007 94.098 34.0127C93.2486 34.3247 92.304 34.4807 91.264 34.4807ZM88.248 26.1347H94.176C94.1066 25.5627 93.942 25.0687 93.682 24.6527C93.422 24.2194 93.0753 23.8901 92.642 23.6647C92.2086 23.4221 91.732 23.3007 91.212 23.3007C90.6746 23.3007 90.1893 23.4221 89.756 23.6647C89.34 23.8901 89.002 24.2194 88.742 24.6527C88.482 25.0687 88.3173 25.5627 88.248 26.1347Z" fill="white"/>
<path d="M100.715 15.2407H104.875V34.2207C104.875 34.2207 104.728 34.2207 104.433 34.2207C104.156 34.2207 103.792 34.2207 103.341 34.2207C102.908 34.2207 102.457 34.2207 101.989 34.2207C101.521 34.2207 101.097 34.2207 100.715 34.2207V15.2407Z" fill="white"/>
<path d="M109.333 34.2207V24.3147H107.279V20.5707H109.333V16.2287H113.597V20.5707H116.743V24.3147H113.597V34.2207H109.333Z" fill="white"/>
<path d="M125.255 34.4807C124.094 34.4807 123.062 34.2987 122.161 33.9347C121.26 33.5534 120.488 33.0421 119.847 32.4007C119.223 31.7594 118.746 31.0227 118.417 30.1907C118.088 29.3414 117.923 28.4574 117.923 27.5387C117.923 26.2214 118.209 25.0254 118.781 23.9507C119.37 22.8587 120.211 21.9834 121.303 21.3247C122.395 20.6487 123.712 20.3107 125.255 20.3107C126.798 20.3107 128.106 20.6401 129.181 21.2987C130.273 21.9574 131.105 22.8241 131.677 23.8987C132.249 24.9561 132.535 26.1087 132.535 27.3567C132.535 27.5994 132.518 27.8421 132.483 28.0847C132.466 28.3101 132.448 28.5094 132.431 28.6827H122.343C122.395 29.2894 122.56 29.8007 122.837 30.2167C123.132 30.6327 123.504 30.9534 123.955 31.1787C124.406 31.3867 124.882 31.4907 125.385 31.4907C126.009 31.4907 126.59 31.3434 127.127 31.0487C127.682 30.7541 128.063 30.3554 128.271 29.8527L131.807 30.8407C131.46 31.5514 130.966 32.1841 130.325 32.7387C129.701 33.2761 128.956 33.7007 128.089 34.0127C127.24 34.3247 126.295 34.4807 125.255 34.4807ZM122.239 26.1347H128.167C128.098 25.5627 127.933 25.0687 127.673 24.6527C127.413 24.2194 127.066 23.8901 126.633 23.6647C126.2 23.4221 125.723 23.3007 125.203 23.3007C124.666 23.3007 124.18 23.4221 123.747 23.6647C123.331 23.8901 122.993 24.2194 122.733 24.6527C122.473 25.0687 122.308 25.5627 122.239 26.1347Z" fill="white"/>
<path d="M134.654 28.9427V25.1987H142.662V28.9427H134.654Z" fill="white"/>
<path d="M167.337 34.2207H163.177V26.5507C163.177 25.6667 163.012 25.0167 162.683 24.6007C162.353 24.1847 161.929 23.9767 161.409 23.9767C160.854 23.9767 160.308 24.2021 159.771 24.6527C159.233 25.1034 158.852 25.6841 158.627 26.3947V34.2207H154.467V26.5507C154.467 25.6494 154.302 24.9994 153.973 24.6007C153.643 24.1847 153.219 23.9767 152.699 23.9767C152.161 23.9767 151.624 24.2021 151.087 24.6527C150.549 25.1034 150.159 25.6841 149.917 26.3947V34.2207H145.757V20.5707H149.501V22.8587C150.003 22.0441 150.679 21.4201 151.529 20.9867C152.395 20.5361 153.401 20.3107 154.545 20.3107C155.671 20.3107 156.538 20.5794 157.145 21.1167C157.751 21.6367 158.141 22.2521 158.315 22.9627C158.835 22.1134 159.519 21.4634 160.369 21.0127C161.235 20.5447 162.206 20.3107 163.281 20.3107C164.147 20.3107 164.849 20.4754 165.387 20.8047C165.924 21.1167 166.331 21.5327 166.609 22.0527C166.886 22.5727 167.077 23.1361 167.181 23.7427C167.285 24.3321 167.337 24.9127 167.337 25.4847V34.2207Z" fill="white"/>
<path d="M175.984 34.4807C175.048 34.4807 174.181 34.3074 173.384 33.9607C172.604 33.5967 171.919 33.1027 171.33 32.4787C170.758 31.8374 170.316 31.0834 170.004 30.2167C169.692 29.3327 169.536 28.3881 169.536 27.3827C169.536 26.3947 169.683 25.4761 169.978 24.6267C170.29 23.7601 170.714 23.0061 171.252 22.3647C171.789 21.7234 172.422 21.2207 173.15 20.8567C173.895 20.4927 174.701 20.3107 175.568 20.3107C176.538 20.3107 177.405 20.5361 178.168 20.9867C178.948 21.4374 179.546 22.0441 179.962 22.8067V20.7527H184.122V34.2207H179.988V32.1927C179.572 32.9381 179.034 33.5101 178.376 33.9087C177.734 34.2901 176.937 34.4807 175.984 34.4807ZM179.988 26.2387C179.797 25.7534 179.537 25.3374 179.208 24.9907C178.896 24.6267 178.54 24.3494 178.142 24.1587C177.743 23.9507 177.327 23.8467 176.894 23.8467C176.46 23.8467 176.053 23.9421 175.672 24.1327C175.29 24.3234 174.961 24.5921 174.684 24.9387C174.406 25.2854 174.19 25.6754 174.034 26.1087C173.895 26.5421 173.826 26.9927 173.826 27.4607C173.826 28.1367 173.964 28.7347 174.242 29.2547C174.519 29.7747 174.9 30.1907 175.386 30.5027C175.888 30.8147 176.452 30.9707 177.076 30.9707C177.492 30.9707 177.882 30.8927 178.246 30.7367C178.61 30.5807 178.93 30.3641 179.208 30.0867C179.502 29.8094 179.762 29.4714 179.988 29.0727V26.2387Z" fill="white"/>
<path d="M195.864 34.4807C194.841 34.4807 193.948 34.2641 193.186 33.8307C192.423 33.3801 191.825 32.7734 191.392 32.0107V39.7587H187.232V20.5707H190.846V22.7807C191.348 22.0007 191.981 21.3941 192.744 20.9607C193.506 20.5274 194.399 20.3107 195.422 20.3107C196.34 20.3107 197.181 20.4927 197.944 20.8567C198.724 21.2207 199.4 21.7234 199.972 22.3647C200.544 23.0061 200.986 23.7514 201.298 24.6007C201.61 25.4501 201.766 26.3687 201.766 27.3567C201.766 28.7087 201.514 29.9221 201.012 30.9967C200.509 32.0714 199.807 32.9207 198.906 33.5447C198.022 34.1687 197.008 34.4807 195.864 34.4807ZM194.46 30.9707C194.91 30.9707 195.318 30.8754 195.682 30.6847C196.063 30.4767 196.392 30.2081 196.67 29.8787C196.947 29.5494 197.155 29.1681 197.294 28.7347C197.45 28.2841 197.528 27.8161 197.528 27.3307C197.528 26.8281 197.441 26.3687 197.268 25.9527C197.112 25.5367 196.886 25.1727 196.592 24.8607C196.297 24.5314 195.95 24.2801 195.552 24.1067C195.153 23.9334 194.72 23.8467 194.252 23.8467C193.974 23.8467 193.688 23.8901 193.394 23.9767C193.116 24.0634 192.848 24.1934 192.588 24.3667C192.345 24.5227 192.12 24.7134 191.912 24.9387C191.704 25.1641 191.53 25.4241 191.392 25.7187V28.5267C191.582 28.9947 191.834 29.4107 192.146 29.7747C192.458 30.1387 192.813 30.4334 193.212 30.6587C193.61 30.8667 194.026 30.9707 194.46 30.9707Z" fill="white"/>
<path d="M204.149 15.2407H208.309V34.2207C208.309 34.2207 208.161 34.2207 207.867 34.2207C207.589 34.2207 207.225 34.2207 206.775 34.2207C206.341 34.2207 205.891 34.2207 205.423 34.2207C204.955 34.2207 204.53 34.2207 204.149 34.2207V15.2407Z" fill="white"/>
<path d="M211.467 34.2207V20.5707H215.627V34.2207H211.467ZM211.467 19.0107V15.2407H215.627V19.0107H211.467Z" fill="white"/>
<path d="M226.924 34.4807C225.884 34.4807 224.974 34.2641 224.194 33.8307C223.414 33.3801 222.799 32.7561 222.348 31.9587V34.2207H218.734V15.2407H222.894V22.8067C223.345 22.0094 223.943 21.3941 224.688 20.9607C225.451 20.5274 226.344 20.3107 227.366 20.3107C228.233 20.3107 229.022 20.5014 229.732 20.8827C230.46 21.2467 231.084 21.7581 231.604 22.4167C232.142 23.0581 232.558 23.8121 232.852 24.6787C233.147 25.5281 233.294 26.4554 233.294 27.4607C233.294 28.4487 233.13 29.3674 232.8 30.2167C232.488 31.0661 232.046 31.8114 231.474 32.4527C230.902 33.0941 230.226 33.5967 229.446 33.9607C228.684 34.3074 227.843 34.4807 226.924 34.4807ZM225.754 30.9707C226.222 30.9707 226.656 30.8841 227.054 30.7107C227.47 30.5201 227.826 30.2687 228.12 29.9567C228.415 29.6447 228.64 29.2807 228.796 28.8647C228.952 28.4314 229.03 27.9634 229.03 27.4607C229.03 26.8194 228.9 26.2214 228.64 25.6667C228.38 25.1121 228.016 24.6701 227.548 24.3407C227.098 24.0114 226.569 23.8467 225.962 23.8467C225.529 23.8467 225.113 23.9507 224.714 24.1587C224.316 24.3667 223.96 24.6527 223.648 25.0167C223.336 25.3634 223.085 25.7621 222.894 26.2127V29.0727C223.033 29.3674 223.206 29.6361 223.414 29.8787C223.622 30.1041 223.848 30.2947 224.09 30.4507C224.35 30.6067 224.619 30.7367 224.896 30.8407C225.191 30.9274 225.477 30.9707 225.754 30.9707Z" fill="white"/>
<path d="M244.283 24.1327C243.278 24.1327 242.368 24.2974 241.553 24.6267C240.739 24.9387 240.149 25.4067 239.785 26.0307V34.2207H235.625V20.5707H239.447V23.3267C239.915 22.4081 240.522 21.6887 241.267 21.1687C242.013 20.6487 242.793 20.3801 243.607 20.3627C243.798 20.3627 243.937 20.3627 244.023 20.3627C244.127 20.3627 244.214 20.3714 244.283 20.3887V24.1327Z" fill="white"/>
<path d="M252.72 34.4807C251.559 34.4807 250.527 34.2987 249.626 33.9347C248.725 33.5534 247.953 33.0421 247.312 32.4007C246.688 31.7594 246.211 31.0227 245.882 30.1907C245.553 29.3414 245.388 28.4574 245.388 27.5387C245.388 26.2214 245.674 25.0254 246.246 23.9507C246.835 22.8587 247.676 21.9834 248.768 21.3247C249.86 20.6487 251.177 20.3107 252.72 20.3107C254.263 20.3107 255.571 20.6401 256.646 21.2987C257.738 21.9574 258.57 22.8241 259.142 23.8987C259.714 24.9561 260 26.1087 260 27.3567C260 27.5994 259.983 27.8421 259.948 28.0847C259.931 28.3101 259.913 28.5094 259.896 28.6827H249.808C249.86 29.2894 250.025 29.8007 250.302 30.2167C250.597 30.6327 250.969 30.9534 251.42 31.1787C251.871 31.3867 252.347 31.4907 252.85 31.4907C253.474 31.4907 254.055 31.3434 254.592 31.0487C255.147 30.7541 255.528 30.3554 255.736 29.8527L259.272 30.8407C258.925 31.5514 258.431 32.1841 257.79 32.7387C257.166 33.2761 256.421 33.7007 255.554 34.0127C254.705 34.3247 253.76 34.4807 252.72 34.4807ZM249.704 26.1347H255.632C255.563 25.5627 255.398 25.0687 255.138 24.6527C254.878 24.2194 254.531 23.8901 254.098 23.6647C253.665 23.4221 253.188 23.3007 252.668 23.3007C252.131 23.3007 251.645 23.4221 251.212 23.6647C250.796 23.8901 250.458 24.2194 250.198 24.6527C249.938 25.0687 249.773 25.5627 249.704 26.1347Z" fill="white"/>
<path fill-rule="evenodd" clip-rule="evenodd" d="M30.6446 10.7595C30.6446 16.7018 19.8851 31.8878 19.8851 31.8878C19.8851 31.8878 9.12564 16.7018 9.12564 10.7595C9.12564 4.8172 13.9428 0 19.8851 0C25.8274 0 30.6446 4.8172 30.6446 10.7595ZM19.8852 15.0299C22.1717 15.0299 24.0252 13.1764 24.0252 10.8899C24.0252 8.60339 22.1717 6.74982 19.8852 6.74982C17.5987 6.74982 15.7451 8.60339 15.7451 10.8899C15.7451 13.1764 17.5987 15.0299 19.8852 15.0299Z" fill="#FF1C60"/>
<path d="M8.15633 6.79178C4.10675 8.54237 1.17664 12.3226 0.612623 16.8857C0.279122 19.584 0 22.5852 0 25.1148C0 27.6445 0.279122 30.6457 0.612623 33.344C1.32887 39.1389 5.86111 43.6711 11.656 44.3874C14.3543 44.7209 17.3555 45 19.8852 45C22.4148 45 25.416 44.7209 28.1143 44.3874C33.9092 43.6711 38.4415 39.1389 39.1577 33.344C39.4912 30.6457 39.7703 27.6445 39.7703 25.1148C39.7703 22.5852 39.4912 19.584 39.1577 16.8857C38.5937 12.3226 35.6636 8.54243 31.6141 6.79181C32.1752 8.16635 32.4833 9.66341 32.4833 11.2298C32.4833 11.5206 32.4596 11.8311 32.4142 12.159C33.849 13.4958 34.8191 15.3229 35.0746 17.3904C35.4011 20.0321 35.6562 22.8375 35.6562 25.1148C35.6562 26.6439 35.5412 28.411 35.3668 30.2068C34.695 27.9022 32.9886 25.9222 30.736 24.4508C29.7449 23.8035 28.6343 23.2435 27.4306 22.7853C27.0402 23.4585 26.6419 24.127 26.242 24.7836C27.4473 25.2108 28.5392 25.746 29.486 26.3645C32.019 28.019 33.3932 30.1726 33.3932 32.3857C33.3932 34.5987 32.019 36.7523 29.486 38.4069C27.8687 39.4633 25.828 40.2767 23.5222 40.7245C22.2376 40.8249 20.9983 40.8858 19.8852 40.8858C18.3222 40.8858 16.5106 40.7657 14.6738 40.5848C12.638 40.1175 10.8311 39.3614 9.36981 38.4069C6.83676 36.7523 5.46257 34.5987 5.46257 32.3857C5.46257 30.1726 6.83676 28.019 9.36981 26.3645C10.4148 25.6819 11.6366 25.1007 12.9924 24.6541C12.5915 23.9939 12.1926 23.3222 11.8021 22.6463C10.4529 23.1284 9.21356 23.7365 8.11987 24.4508C6.47558 25.5249 5.12229 26.8699 4.25 28.4144C4.16487 27.2504 4.11417 26.1301 4.11417 25.1148C4.11417 22.8375 4.36922 20.0321 4.69574 17.3904C4.95129 15.3229 5.92141 13.4958 7.35622 12.159C7.31082 11.8311 7.28708 11.5206 7.28708 11.2298C7.28708 9.66338 7.59522 8.16635 8.15633 6.79178Z" fill="#FF1C60"/>
<path d="M13.6656 25.7496C13.0534 26.0125 12.4809 26.3172 11.9569 26.6595C10.0039 27.9352 8.60334 29.8297 8.60334 32.088C8.60334 34.3462 10.0039 36.2408 11.9569 37.5164C13.9202 38.7988 16.5648 39.5547 19.4278 39.5547C22.2909 39.5547 24.9355 38.7988 26.8988 37.5164C28.8518 36.2408 30.2523 34.3462 30.2523 32.088C30.2523 29.8297 28.8518 27.9352 26.8988 26.6595C26.4781 26.3847 26.0262 26.1342 25.5476 25.91C25.1299 26.5798 24.7146 27.2321 24.3091 27.8589C24.7963 28.0694 25.245 28.3093 25.6488 28.5731C27.1998 29.5862 27.9666 30.8536 27.9666 32.088C27.9666 33.3222 27.1998 34.5897 25.6488 35.6028C24.108 36.6092 21.9118 37.269 19.4278 37.269C16.9438 37.269 14.7476 36.6092 13.2068 35.6028C11.6558 34.5897 10.889 33.3222 10.889 32.088C10.889 30.8536 11.6558 29.5862 13.2068 28.5731C13.7087 28.2453 14.2801 27.9542 14.9084 27.7108C14.5009 27.0793 14.0842 26.4228 13.6656 25.7496Z" fill="#FF1C60"/>
<path d="M15.7019 28.9277C14.773 29.5648 14.0291 30.5497 14.0291 31.7889C14.0291 33.0686 14.8223 34.0771 15.7935 34.7114C16.7749 35.3524 18.063 35.7116 19.4278 35.7116C20.7925 35.7116 22.0807 35.3524 23.0621 34.7114C24.0333 34.0771 24.8265 33.0686 24.8265 31.7889C24.8265 30.6895 24.241 29.7903 23.4602 29.1565C23.0078 29.8406 22.5759 30.4821 22.1762 31.0683C22.4532 31.3409 22.5408 31.5994 22.5408 31.7889C22.5408 32.0445 22.3814 32.426 21.8122 32.7978C21.2533 33.1628 20.4135 33.426 19.4278 33.426C18.4421 33.426 17.6023 33.1628 17.0434 32.7978C16.4742 32.426 16.3147 32.0445 16.3147 31.7889C16.3147 31.5441 16.461 31.184 16.9731 30.8275C16.5749 30.2413 16.1475 29.604 15.7019 28.9277Z" fill="#FF1C60"/>
</svg>
